<?xml version="1.0" encoding="utf-8"?>
<!-- Svg Vector Icons : http://www.onlinewebfonts.com/icon -->
<!DOCTYPE svg PUBLIC "-//W3C//DTD SVG 1.1//EN" "http://www.w3.org/Graphics/SVG/1.1/DTD/svg11.dtd">
<svg version="1.1" xmlns="http://www.w3.org/2000/svg" xmlns:xlink="http://www.w3.org/1999/xlink" x="0px" y="0px" viewBox="0 0 1000 1000" enable-background="new 0 0 1000 1000" xml:space="preserve">
<metadata> Svg Vector Icons : http://www.onlinewebfonts.com/icon </metadata>
<g><g transform="translate(0.000000,511.000000) scale(0.100000,-0.100000)"><path d="M4829.8,4257.3c-44.3-34.7-1109.5-990.1-2369.3-2124.7C692.1,541.5,160.5,52.2,129.6-9.4c-61.6-121.3-25-252.3,90.5-327.5c46.2-30.8,121.4-36.6,660.7-44.3l606.8-9.6l9.6-1772.2c11.6-1972.5,0-1837.7,140.6-1905.1c59.7-27,192.6-30.8,1275.2-30.8c1082.6,0,1215.5,3.9,1275.2,30.8c138.7,67.4,129.1-15.4,140.6,1442.8l9.6,1309.9l660.7,5.8l658.8,3.9v-1284.8c0-1421.6-3.9-1365.7,121.3-1458.2c54-40.4,75.1-40.4,1261.7-46.2c787.9-3.9,1230.9,1.9,1275.2,13.5c38.5,11.5,94.4,46.2,125.2,79l57.8,59.7l5.8,1781.8l3.9,1779.9h602.9c562.5,0,604.9,1.9,662.7,38.5C9892-271.4,9936.4-98,9867,15.6C9836.2,65.7,5365.3,4107,5176.5,4257.3c-65.5,50.1-96.3,61.6-173.4,61.6C4928,4318.9,4895.3,4307.4,4829.8,4257.3z M6962.2,1938C8040.9,967.2,8927,165.9,8928.9,156.2c3.9-9.6-163.7-17.3-387.2-17.3c-369.9,0-396.8-1.9-445-40.5c-113.6-88.6-107.9,5.8-107.9-1905.1v-1752.9h-895.7h-895.7v1282.9c0,1419.7,3.9,1377.3-123.3,1454.3c-55.9,34.7-115.6,36.6-1069.1,36.6c-978.6,0-1011.3-1.9-1071-38.5c-129.1-80.9-125.2-30.8-125.2-1452.4v-1282.9h-895.7h-895.7v1760.6V-40.2l-44.3,65.5c-71.3,106-100.2,113.7-520.1,113.7c-210,0-379.5,7.7-375.6,15.4c3.8,13.5,3902.7,3540.5,3920,3546.3C4999.3,3702.5,5883.4,2908.9,6962.2,1938z"/></g></g>
</svg>